# xmcd
#
# Track frame offsets:
#	150
#	14742
#	31470
#	49077
#	65112
#	83110
#	99187
#	113200
#	132157
#	148327
#	164030
#	183152
#
# Disc length: 2661 seconds
#
# Revision: 4
# Processed by: cddbd v1.4PL0 Copyright (c) Steve Scherf et al.
# Submitted via: audiograbber 1.82.02
#
DISCID=ac0a630c
DTITLE=Phil Vassar - American Child
DYEAR=2002
DGENRE=Country
TTITLE0=American Child
TTITLE1=Forgettin's So Long
TTITLE2=Time's Wastin'
TTITLE3=I'm Already Gone
TTITLE4=Athens Grease
TTITLE5=Baby, You're Right
TTITLE6=Ultimate Love
TTITLE7=Stand Still
TTITLE8=Someone You Love
TTITLE9=Houston
TTITLE10=I Thought I Never Would Forget
TTITLE11=I'll Be The One
EXTD=YEAR: 2002 ID3G: 2
EXTT0=
EXTT1=
EXTT2=
EXTT3=
EXTT4=
EXTT5=
EXTT6=
EXTT7=
EXTT8=
EXTT9=
EXTT10=
EXTT11=
PLAYORDER=
